<svg xmlns="http://www.w3.org/2000/svg" width="723.299" height="987.918" viewBox="0 0 723.299 987.918">
  <g id="Group_2339" data-name="Group 2339" transform="translate(-796.605 -164)">
    <g id="Group_29" data-name="Group 29" transform="translate(924.587 164)">
      <path id="Path_11" data-name="Path 11" d="M9563.945,2769.866l-247.339-92.432-144.84,286.552h392.179Z" transform="translate(-8968.718 -2677.434)" fill="#d0f3f6"/>
      <path id="Path_10" data-name="Path 10" d="M9536.984,2836.958l-595.316,74.536,97.705,772.552,497.611-68.646Z" transform="translate(-8941.668 -2696.127)" fill="#d8f5ea"/>
    </g>
    <g id="Group_1583" data-name="Group 1583" transform="translate(796.605 293.657)">
      <path id="Path_1713" data-name="Path 1713" d="M210.469,283.45a6.444,6.444,0,0,0-6.347,1.144,16.694,16.694,0,0,0-4.083,5.342,102.436,102.436,0,0,0-7.46,17.21c-1.234,3.713-2.114,8.281.555,11.142,2.306,2.472,6.455,2.4,9.348.648s4.766-4.765,6.283-7.787a63.134,63.134,0,0,0,4.454-11.6,23.291,23.291,0,0,0,1.028-8.772C213.907,287.83,212.766,284.463,210.469,283.45Z" transform="translate(-184.845 -158.782)" fill="#6f97cf"/>
      <path id="Path_1714" data-name="Path 1714" d="M502.922,356.225c.914,2.65,2.658,5.424,5.269,6.445a20.965,20.965,0,0,0,8.278,1.108A49.4,49.4,0,0,0,541,356.363c4.4-2.745,8.747-7.061,8.26-12.227-.352-3.725-3.275-6.829-6.685-8.371s-7.254-1.78-11-1.8c-3.541-.022-10.34.92-12.955,2.932a41.828,41.828,0,0,0-13.347,13.012C503.807,352.186,502.438,354.824,502.922,356.225Z" transform="translate(-271.988 -173.033)" fill="#6f97cf"/>
      <path id="Path_1715" data-name="Path 1715" d="M230.206,345.712c-3.291,6.924-6.6,13.893-8.6,21.294-1.135,4.2-1.8,8.853.078,12.782s7.181,6.429,10.791,3.993a10.023,10.023,0,0,0,2.892-3.466,58.049,58.049,0,0,0,5-12.834c1.645-5.667,3.093-11.575,2.273-17.419-.328-2.34-1.158-4.822-3.139-6.111C236.8,342.2,231.706,342.557,230.206,345.712Z" transform="translate(-192.992 -175.535)" fill="#6f97cf"/>
      <path id="Path_1716" data-name="Path 1716" d="M248.59,417.635a67.542,67.542,0,0,0-7.913,15.548c-1.333,3.76-2.325,7.913-1.048,11.693s5.63,6.739,9.309,5.2a9.181,9.181,0,0,0,3.143-2.459c4.779-5.313,6.978-12.431,8.5-19.413.64-2.933,1.183-6.008.41-8.909s-3.238-5.565-6.24-5.6C252.044,413.66,249.817,415.842,248.59,417.635Z" transform="translate(-198.177 -195.342)" fill="#6f97cf"/>
      <path id="Path_1717" data-name="Path 1717" d="M281.317,472.019a71.436,71.436,0,0,0-7.28,18.406,7.878,7.878,0,0,0-.3,3.226,7.333,7.333,0,0,0,2.714,3.96c1.355,1.183,3.053,2.3,4.822,1.97a5.926,5.926,0,0,0,3.319-2.432c3.816-4.816,5.6-10.914,6.861-16.926a25.186,25.186,0,0,0,.669-9.182c-.26-1.594-.971-3.327-2.483-3.894a4.465,4.465,0,0,0-3.558.528A12.888,12.888,0,0,0,281.317,472.019Z" transform="translate(-207.868 -210.248)" fill="#6f97cf"/>
      <g id="Group_1581" data-name="Group 1581" transform="translate(9.86 16.018)">
        <path id="Path_1718" data-name="Path 1718" d="M483.855,328.166q22.911,47.323,44.1,95.453c2.115,4.8,4.265,9.924,3.552,15.125-1.33,9.7-11.544,15.179-20.517,19.1L333.651,535.3c-2.69,1.175-5.749,2.362-8.466,1.254-2.536-1.034-3.913-3.723-5.076-6.2-11.48-24.47-22.96-48.22-34.44-72.69-.307-7.8,2.84-18.777,5.59-25.934,4.888-12.719,9.46-27.376,4.729-40.855-3.606-10.275-13.478-19.673-25-18.7,7.62-14.974-.333-33.842-16.335-38.868,4.023-9.122,1.862-19.2-1.018-28.567a30.138,30.138,0,0,0-7.922-12.963c-1.44-1.44-2.881-2.161-3.6-3.6-1.44-1.44-3.6-1.44-5.041-3.6,5.761-12.243,7.2-28.087-4.321-37.45-5.761-3.6-12.243-5.761-18.725-5.041-1.44.72-2.881.72-3.6,0-5.041-7.922-7.2-16.564-10.8-25.206-.72-2.881-2.161-7.2,0-10.083s6.482-3.6,9.362-5.041C273.08,179.43,334.3,157.824,398.392,135.5c2.881-.72,5.761,0,7.2,3.6,15.844,40.33,30.968,79.94,48.252,119.551,1.44,3.6,2.161,7.2,4.321,10.8.72,1.44,2.161,2.881,3.07,4.458-10.585,1.173-21.65,2.518-30.429,8.546a39.926,39.926,0,0,0-8.535,8.133,21.81,21.81,0,0,0-4.684,8.938,18.681,18.681,0,0,0,.087,7.1c.766,4.173,2.553,8.3,5.746,11.089,2.593,2.269,5.908,3.509,9.182,4.579A124.135,124.135,0,0,0,483.855,328.166Z" transform="translate(-196.689 -133.447)" fill="#1a1c6e"/>
        <path id="Path_1719" data-name="Path 1719" d="M326.838,538.092a7.968,7.968,0,0,1-3.029-.569c-3.072-1.252-4.662-4.2-6.027-7.1-5.738-12.231-11.573-24.485-17.216-36.335s-11.482-24.116-17.225-36.356a1.809,1.809,0,0,1-.169-.693c-.311-7.887,2.745-18.939,5.709-26.65,5.052-13.148,9.12-27.048,4.71-39.612-4.354-12.407-14.944-18.19-23.147-17.5a1.8,1.8,0,0,1-1.757-2.611,26.124,26.124,0,0,0-15.27-36.334,1.8,1.8,0,0,1-1.108-2.444c3.785-8.582,1.712-18.2-1.092-27.311a28.293,28.293,0,0,0-7.474-12.22c-.449-.448-.918-.833-1.37-1.206a9.529,9.529,0,0,1-2.4-2.545,7.044,7.044,0,0,0-1.413-.811,8.3,8.3,0,0,1-3.687-2.914,1.8,1.8,0,0,1-.13-1.765c5.281-11.223,7.061-26.352-3.742-35.216-5.846-3.632-11.784-5.272-17.185-4.749-2.063.917-4.14.737-5.364-.487a1.837,1.837,0,0,1-.246-.306c-3.562-5.6-5.754-11.614-7.874-17.432-.961-2.64-1.955-5.37-3.072-8.049a1.776,1.776,0,0,1-.085-.256c-.068-.272-.143-.556-.22-.851-.776-2.967-1.947-7.45.526-10.749,1.836-2.448,4.749-3.527,7.319-4.48a27.962,27.962,0,0,0,2.678-1.092,1.786,1.786,0,0,1,.213-.09c32.047-11.162,63.9-22.329,94.7-33.128S365.055,144.262,397.1,133.1c.051-.018.1-.034.156-.047,4.234-1.06,7.715.691,9.311,4.679q4.016,10.225,7.978,20.371c13.318,34.062,25.9,66.234,40.252,99.128.522,1.3.937,2.547,1.339,3.751a32.962,32.962,0,0,0,2.876,6.845c.024.039.045.079.067.121a14.187,14.187,0,0,0,1.388,2.026,21.716,21.716,0,0,1,1.631,2.338A1.8,1.8,0,0,1,460.74,275c-9.841,1.09-20.993,2.325-29.609,8.241a38.17,38.17,0,0,0-8.145,7.77c-1.533,1.927-3.651,4.873-4.329,8.178a16.726,16.726,0,0,0,.094,6.418c.552,3.012,1.9,7.2,5.162,10.059,2.4,2.1,5.674,3.28,8.556,4.222a122.891,122.891,0,0,0,50.5,5.787,1.8,1.8,0,0,1,1.807,1.006c15.212,31.419,30.06,63.554,44.131,95.512,2,4.547,4.495,10.208,3.687,16.095-1.424,10.384-11.707,16.192-21.579,20.5L333.675,536.251A17.565,17.565,0,0,1,326.838,538.092ZM286.76,456.534c5.687,12.119,11.467,24.258,17.058,36,5.645,11.856,11.482,24.116,17.225,36.356,1.105,2.357,2.254,4.536,4.124,5.3,2.023.825,4.6-.159,7.066-1.237l177.342-77.459c8.957-3.912,18.271-9.073,19.454-17.693.669-4.878-1.6-10.021-3.416-14.155-13.885-31.534-28.527-63.242-43.529-94.263a126.889,126.889,0,0,1-50.735-6.07c-3.219-1.052-6.9-2.389-9.808-4.935-4.045-3.54-5.676-8.545-6.332-12.119a20.228,20.228,0,0,1-.08-7.791c.834-4.063,3.275-7.48,5.04-9.7a41.743,41.743,0,0,1,8.924-8.5c8.448-5.8,18.744-7.415,28.213-8.51a14.759,14.759,0,0,1-1.412-2.14,36.467,36.467,0,0,1-3.171-7.5c-.4-1.208-.784-2.35-1.244-3.5-14.36-32.907-26.953-65.11-40.284-99.205q-3.969-10.15-7.972-20.355c-.915-2.289-2.56-3.12-5.014-2.531-32.019,11.152-63.844,22.309-94.62,33.1s-62.588,21.942-94.6,33.092c-.917.449-1.94.828-2.93,1.195-2.207.818-4.49,1.664-5.689,3.264-1.431,1.908-.595,5.107.078,7.677q.1.391.2.757c1.126,2.712,2.12,5.439,3.081,8.077,2.107,5.787,4.1,11.258,7.343,16.438a2.752,2.752,0,0,0,1.461-.351,1.809,1.809,0,0,1,.606-.179c6.323-.7,13.2,1.131,19.879,5.3a1.759,1.759,0,0,1,.181.129c12.159,9.879,10.781,26.179,5.3,38.549a7.248,7.248,0,0,0,1.64.968,8.794,8.794,0,0,1,2.559,1.658,1.793,1.793,0,0,1,.338.468,5.987,5.987,0,0,0,1.636,1.692c.495.408,1.056.869,1.628,1.441a31.812,31.812,0,0,1,8.38,13.742c2.813,9.141,4.921,18.844,1.653,27.986a29.811,29.811,0,0,1,16.76,38.1c11.322.592,20.447,10.085,23.906,19.944,4.795,13.66.552,28.305-4.746,42.1C289.455,438.933,286.577,449.214,286.76,456.534Z" transform="translate(-195.992 -132.748)" fill="#1a1c6e"/>
      </g>
      <path id="Path_1720" data-name="Path 1720" d="M602.9,223.388a1.8,1.8,0,0,1-1.537-2.74c6.68-10.935,13.551-21.958,20.431-32.77-.126-4.351-.258-8.6-.387-12.77-.469-15.019-.91-29.2-.861-43.3.005-1.375.015-3.933,1.852-5.53a6.917,6.917,0,0,1,3.642-1.4c19.265-3.065,38.866-5.677,58.259-7.763,6.5-.7,12.77-1.072,18.145,1.99a9.426,9.426,0,0,1,4.114,4.171,12.146,12.146,0,0,1,.866,4.155l4.793,57.854c.213,2.579.611,7.38-2.574,10.232a11.64,11.64,0,0,1-5.814,2.356c-20.265,3.858-31.193,5.177-52.224,4.89-4.98-.069-12.52.04-14.388.417l-33.393,19.954A1.8,1.8,0,0,1,602.9,223.388Zm88.641-103.154a64.983,64.983,0,0,0-6.858.461c-19.333,2.079-38.873,4.682-58.078,7.738a4.233,4.233,0,0,0-1.846.563c-.532.462-.609,1.631-.614,2.825-.049,14.032.392,28.188.859,43.174.135,4.349.274,8.785.4,13.331a1.8,1.8,0,0,1-.28,1.018c-5.66,8.89-11.316,17.925-16.865,26.939l27.34-16.337a1.8,1.8,0,0,1,.43-.186c2.709-.771,15.1-.609,15.622-.6,20.714.282,31.5-1.018,51.5-4.827a8.5,8.5,0,0,0,4.085-1.5c1.626-1.456,1.628-4.346,1.388-7.252l-4.792-57.854a9.317,9.317,0,0,0-.557-2.963,5.968,5.968,0,0,0-2.618-2.532A18.131,18.131,0,0,0,691.545,120.234Z" transform="translate(-299.489 -112.219)" fill="#6f97cf"/>
      <path id="Path_1721" data-name="Path 1721" d="M254,254.826a3.329,3.329,0,0,0-1.98,4.332q13.541,34.912,29.7,68.731c.746,1.561,1.7,3.29,3.381,3.7a5.913,5.913,0,0,0,3.257-.475c5.828-2.024,37.493-14.851,43.32-16.875,35.47-12.319,70.992-24.66,105.256-40.016,1.206-.541,2.522-1.2,3-2.432a4.947,4.947,0,0,0-.06-2.852c-1.695-7.423-4.591-14.508-7.476-21.554l-19.113-46.69a3.515,3.515,0,0,0-1.1-1.667c-.91-.623-2.14-.263-3.176.115Z" transform="translate(-201.747 -135.18)" fill="#4a72b6"/>
      <path id="Path_1722" data-name="Path 1722" d="M202.017,403.62a1.792,1.792,0,0,1-1.167-.43c-8.432-7.179-15.176-18.669-17.18-29.271-2.062-10.912-1.389-22.129-.6-31.788,1.373-16.713,3.7-34.367,11.328-50.254,1.854-3.859,4.335-8.076,8.675-10.088,3.713-1.721,7.885-1.364,11.841-.722,5.041.819,10.788,2.152,15.2,5.824,5.076,4.23,7.917,11.262,7.795,19.292-.107,6.963-2.232,13.546-4.287,19.912a1.8,1.8,0,1,1-3.427-1.106c1.974-6.114,4.015-12.435,4.113-18.86.1-6.835-2.325-12.992-6.5-16.47-3.741-3.118-8.908-4.3-13.469-5.037-3.388-.55-6.914-.878-9.748.435-3.308,1.533-5.366,5.1-6.945,8.379-7.379,15.359-9.64,32.623-10.986,48.991-.773,9.423-1.433,20.353.545,30.823,1.833,9.692,8.253,20.623,15.977,27.2a1.8,1.8,0,0,1-1.168,3.171Z" transform="translate(-182.301 -158.083)" fill="#1a1c6e"/>
      <path id="Path_1723" data-name="Path 1723" d="M225.385,461.912a1.8,1.8,0,0,1-1.213-.47C215,453.074,209.112,440.4,207.6,425.752c-1.458-14.116,1.228-28.344,3.729-39.161a300.1,300.1,0,0,1,9.58-32.773c1.959-5.509,4.741-11.363,10.527-13.009,3.731-1.06,7.975-.062,12.61,2.97,14.908,9.747,21.449,30.354,14.89,46.915a1.8,1.8,0,1,1-3.347-1.326c5.952-15.029.016-33.73-13.513-42.576-3.723-2.434-6.973-3.282-9.655-2.519-4.212,1.2-6.468,6.107-8.119,10.751a296.364,296.364,0,0,0-9.464,32.378c-2.439,10.546-5.059,24.393-3.657,37.98,1.422,13.767,6.9,25.629,15.419,33.4a1.8,1.8,0,0,1-1.214,3.131Z" transform="translate(-189.265 -174.834)" fill="#1a1c6e"/>
      <path id="Path_1724" data-name="Path 1724" d="M253.575,518.163c-5.226,0-9.838-2.427-13.4-7.071-3.626-4.725-5.346-10.495-6.549-15.515a122.838,122.838,0,0,1,1.328-62.253c3.62-12.677,9.151-20.436,16.911-23.719,9.411-3.981,21.58.088,27.706,9.266,5.424,8.124,6.171,19.491,1.952,29.664a1.8,1.8,0,0,1-3.327-1.38c3.765-9.076,3.144-19.147-1.62-26.285-5.2-7.789-15.435-11.28-23.307-7.949-6.693,2.832-11.55,9.829-14.852,21.392a119.237,119.237,0,0,0-1.291,60.424c1.116,4.652,2.69,9.972,5.906,14.162,3.121,4.067,7,5.961,11.553,5.625a1.8,1.8,0,1,1,.264,3.591Q254.2,518.163,253.575,518.163Z" transform="translate(-195.717 -193.772)" fill="#1a1c6e"/>
      <path id="Path_1725" data-name="Path 1725" d="M319.81,592.224a1.793,1.793,0,0,1-.805-.191,253.945,253.945,0,0,1-29.522-17.394c-8.382-5.737-16.854-12.322-22.051-21.585-8.562-15.256-5.87-34.358-3.1-47.4,1.672-7.872,3.762-15.753,6.214-23.421,1.772-5.543,4.077-11.794,9.04-15.815,7.434-6.022,19.8-5.019,27.562,2.236,6.466,6.042,9.959,15.728,9.583,26.574-.321,9.281-3.184,18.218-5.954,26.86l-.148.464c-2.575,8.037-5.494,17.145-5.557,26.362a1.8,1.8,0,0,1-1.8,1.788h-.012a1.8,1.8,0,0,1-1.788-1.813c.068-9.768,3.075-19.154,5.728-27.436l.148-.463c2.695-8.41,5.481-17.1,5.785-25.886.339-9.806-2.738-18.487-8.443-23.818-6.5-6.076-16.745-7-22.837-2.07-4.191,3.4-6.264,9.066-7.877,14.114-2.415,7.554-4.474,15.317-6.122,23.072-2.872,13.525-5.159,30.851,2.718,44.888,4.835,8.618,12.924,14.885,20.944,20.375a250.274,250.274,0,0,0,29.1,17.147,1.8,1.8,0,0,1-.808,3.411Z" transform="translate(-204.499 -208.995)" fill="#1a1c6e"/>
      <path id="Path_1726" data-name="Path 1726" d="M665.282,553.441a1.8,1.8,0,0,1-1.393-.66c-14.091-17.21-17.985-41.005-21.114-60.125a219.892,219.892,0,0,1-3.116-34.575,455.929,455.929,0,0,0-3.886-49.634c-1.094-8.794-5.534-30.781-7.509-39.612-1.489-6.659-4.806-15.886-12.152-22.106a117.94,117.94,0,0,0-74.6-17.555c-9.979,1.072-17.516,3.295-23.719,7-7.594,4.532-12.752,11.354-14.151,18.718-.786,4.139-.122,7.92,1.82,10.372,2.16,2.726,5.828,3.989,9.4,5.05a191.526,191.526,0,0,0,65.085,7.65,1.8,1.8,0,1,1,.2,3.6,195.129,195.129,0,0,1-66.305-7.793c-3.944-1.171-8.388-2.717-11.2-6.266-3.549-4.48-3.112-10.243-2.535-13.28,1.591-8.374,7.365-16.079,15.843-21.138,6.664-3.978,14.666-6.356,25.18-7.485a121.568,121.568,0,0,1,77,18.15,1.917,1.917,0,0,1,.2.147c8.184,6.868,11.828,16.929,13.445,24.159,1.988,8.889,6.461,31.048,7.568,39.953a459.1,459.1,0,0,1,3.913,49.978,217.1,217.1,0,0,0,3.069,34.1c3.219,19.669,6.868,41.962,20.347,58.425a1.8,1.8,0,0,1-1.393,2.941Z" transform="translate(-271.119 -170.508)" fill="#1a1c6e"/>
      <path id="Path_1727" data-name="Path 1727" d="M448.24,745.511a1.8,1.8,0,0,1-1.386-.65c-14.765-17.769-32.513-42.844-43.551-59.812a1.8,1.8,0,0,1,3.018-1.964c10.981,16.88,28.63,41.817,43.3,59.474a1.8,1.8,0,0,1-1.384,2.951Z" transform="translate(-244.06 -270.494)" fill="#1a1c6e"/>
      <g id="Group_1582" data-name="Group 1582" transform="translate(258.404 0)">
        <path id="Path_1728" data-name="Path 1728" d="M561.961,113.757a14.218,14.218,0,0,0-16.923,6.754,12.972,12.972,0,0,0,10.1,18.819,13.6,13.6,0,0,0,14.194-9.858C570.88,123.38,567.686,115.815,561.961,113.757Z" transform="translate(-541.804 -111.209)" fill="#6f97cf"/>
        <path id="Path_1729" data-name="Path 1729" d="M555.74,140.5a13.457,13.457,0,0,1-1.5-.084A14.771,14.771,0,0,1,542.729,119a15.954,15.954,0,0,1,19.14-7.64h0c6.367,2.289,10.343,10.631,8.508,17.853A15.472,15.472,0,0,1,555.74,140.5Zm1.2-26.383a12.491,12.491,0,0,0-10.989,6.5,11.17,11.17,0,0,0,8.693,16.22,11.834,11.834,0,0,0,12.248-8.512c1.381-5.436-1.591-11.908-6.235-13.578h0A10.981,10.981,0,0,0,556.936,114.116Z" transform="translate(-541.104 -110.506)" fill="#6f97cf"/>
      </g>
      <path id="Path_1730" data-name="Path 1730" d="M419.613,789.726a1.8,1.8,0,0,1-.905-3.358c83-48.216,169.189-93.252,256.169-133.856a1.8,1.8,0,1,1,1.523,3.263c-86.884,40.56-172.976,85.545-255.884,133.708A1.794,1.794,0,0,1,419.613,789.726Z" transform="translate(-248.201 -262.12)" fill="#4a72b6"/>
      <path id="Path_1731" data-name="Path 1731" d="M452.835,836.8a1.8,1.8,0,0,1-.95-3.331A1803.637,1803.637,0,0,1,715.336,698.8a1.8,1.8,0,0,1,1.371,3.331,1799.879,1799.879,0,0,0-262.924,134.4A1.8,1.8,0,0,1,452.835,836.8Z" transform="translate(-257.497 -275.083)" fill="#4a72b6"/>
      <path id="Path_1732" data-name="Path 1732" d="M457.692,846.637a1.8,1.8,0,0,1-.951-3.33c89.152-55.339,176.748-99.864,267.792-136.121a1.8,1.8,0,0,1,1.332,3.345c-90.845,36.178-178.255,80.61-267.226,135.835A1.79,1.79,0,0,1,457.692,846.637Z" transform="translate(-258.856 -277.43)" fill="#4a72b6"/>
      <path id="Path_1733" data-name="Path 1733" d="M499,903.859a1.8,1.8,0,0,1-.942-3.336c93.185-57.1,182.559-104.906,273.228-146.148a1.8,1.8,0,1,1,1.491,3.277c-90.534,41.182-179.779,88.92-272.837,145.942A1.8,1.8,0,0,1,499,903.859Z" transform="translate(-270.413 -290.625)" fill="#4a72b6"/>
      <path id="Path_1734" data-name="Path 1734" d="M506.24,912.887a1.8,1.8,0,0,1-.932-3.341c93.823-56.725,192.4-104.772,276.459-144.292a1.8,1.8,0,0,1,1.532,3.259c-83.973,39.48-182.446,87.476-276.129,144.115A1.792,1.792,0,0,1,506.24,912.887Z" transform="translate(-272.44 -293.667)" fill="#4a72b6"/>
      <path id="Path_1735" data-name="Path 1735" d="M505.545,917.2a1.8,1.8,0,0,1-1.483-.777C471.468,869.265,439.049,821,407.707,772.963c-1.293-1.983-2.9-4.451-3.052-7.38-.156-3.065,1.353-5.769,2.5-7.535,4.8-7.388,12.058-12.227,20.352-17.347A1132.723,1132.723,0,0,1,650.685,634.66c2.1-.729,4.7-1.634,7.43-1.153,3.579.629,6.149,3.435,8.024,5.485A1445.453,1445.453,0,0,0,789.353,758.464a1.8,1.8,0,1,1-2.348,2.73A1449,1449,0,0,1,663.483,641.422c-1.98-2.163-3.8-3.983-5.992-4.37-1.671-.294-3.461.257-5.626,1.01A1129.04,1129.04,0,0,0,429.4,743.764c-7.919,4.888-14.829,9.485-19.225,16.246-1.389,2.14-2,3.853-1.923,5.391.1,1.959,1.36,3.891,2.472,5.595,31.324,48.007,63.725,96.248,96.3,143.383a1.8,1.8,0,0,1-1.48,2.824Z" transform="translate(-244.516 -256.812)" fill="#1a1c6e"/>
      <path id="Path_1736" data-name="Path 1736" d="M531.99,275.212" transform="translate(-280.15 -156.593)" fill="none" stroke="#1a1c6e" stroke-linecap="round" stroke-linejoin="round" stroke-width="5"/>
      <path id="Path_1737" data-name="Path 1737" d="M315.326,386.407a2.554,2.554,0,0,0-1.369,3.254l6.795,17.816c.869,2.28,2.026,4.839,4.363,5.541a6.561,6.561,0,0,0,4.095-.233c5.224-1.927,95.07-38.341,100.149-39.98a3.775,3.775,0,0,0,2.175-1.983,4.919,4.919,0,0,0,.03-3.115,60.229,60.229,0,0,0-7.347-18.344,6.232,6.232,0,0,0-2.63-2.74c-1.461-.614-3.127-.1-4.623.426C387.411,357.373,344.6,373.71,315.326,386.407Z" transform="translate(-219.093 -176.498)" fill="#4a72b6"/>
      <path id="Path_1738" data-name="Path 1738" d="M401.677,438.61a2.692,2.692,0,0,0-1.472,3.74c2.366,4.66,4.038,9.11,6.729,13.869a6.318,6.318,0,0,0,2.333,2.727c1.651.849,3.638.106,5.338-.64l75.247-30.748a13.458,13.458,0,0,0,2.59-1.46c3.773-2.779,2.622-5.2,1.525-7.384-1.617-3.225-3.968-8.667-5.586-11.892a2.392,2.392,0,0,0-3.728-1.352C463.8,413.231,426.048,429.581,401.677,438.61Z" transform="translate(-243.193 -192.932)" fill="#6f97cf"/>
      <path id="Path_1739" data-name="Path 1739" d="M449.644,589.787a2.426,2.426,0,0,0-1.15,3.4l4.948,8.908a3.219,3.219,0,0,0,5.154,1.556q27.344-12.177,54.181-25.452a4.425,4.425,0,0,0,2.067-1.609,4.179,4.179,0,0,0,.187-2.716,35.082,35.082,0,0,0-2.111-7.4c-.583-1.427-1.4-2.946-2.855-3.455s-3.033.168-4.426.831C487.415,572.524,469.191,581.206,449.644,589.787Z" transform="translate(-256.701 -237.074)" fill="#6f97cf"/>
      <path id="Path_1740" data-name="Path 1740" d="M379.817,634.245a3.368,3.368,0,0,0-1.347,4.114,44.29,44.29,0,0,0,2.8,5.826,4.954,4.954,0,0,0,2.1,2.272c1.255.539,2.69.026,3.946-.509q4.476-1.907,8.768-4.209a3.873,3.873,0,0,0,1.478-1.146c.943-1.422-.22-3.507-.794-4.691a33.494,33.494,0,0,0-1.67-3.057,5.576,5.576,0,0,0-2.833-2.653,5.639,5.639,0,0,0-2.812.079A29.838,29.838,0,0,0,379.817,634.245Z" transform="translate(-237.125 -255.881)" fill="#6f97cf"/>
      <path id="Path_1741" data-name="Path 1741" d="M412.088,620.02a1.893,1.893,0,0,0-.361,2.45l3.228,5.033a4.285,4.285,0,0,0,1.456,1.592c1.1.582,2.438.115,3.581-.376a120.438,120.438,0,0,0,10.87-5.324,3.687,3.687,0,0,0,1.419-1.137,3.6,3.6,0,0,0-.008-2.975,35.844,35.844,0,0,0-2.058-5.126,4.361,4.361,0,0,0-1.328-1.776c-1.281-.865-3-.265-4.408.377a106.128,106.128,0,0,0-10.186,5.663,16.578,16.578,0,0,0-2.189,1.586Z" transform="translate(-246.415 -250.818)" fill="#6f97cf"/>
      <path id="Path_1742" data-name="Path 1742" d="M552.818,552.809a3.161,3.161,0,0,0-1.012,4.281l2.685,4.477a3.087,3.087,0,0,0,1.329,1.412,3.019,3.019,0,0,0,2.037-.164A70.424,70.424,0,0,0,565.3,559.9a10.9,10.9,0,0,0,3.222-2c2.773-2.751,2.117-7.543-.017-10.814a1.928,1.928,0,0,0-1.03-.924,2.024,2.024,0,0,0-1.178.179A66.369,66.369,0,0,0,552.818,552.809Z" transform="translate(-285.569 -232.398)" fill="#6f97cf"/>
      <path id="Path_1743" data-name="Path 1743" d="M589.436,534.67a3.245,3.245,0,0,0-.493,4.331l3.8,5.29a1.413,1.413,0,0,0,2.095.629,92.76,92.76,0,0,0,11.47-5.548c1.191-.681,2.474-1.528,2.784-2.865.3-1.313-.443-2.617-1.159-3.759l-2.415-3.849a4.159,4.159,0,0,0-1.6-1.71c-1.1-.51-2.385.029-3.473.571A49.911,49.911,0,0,0,589.436,534.67Z" transform="translate(-295.915 -227.044)" fill="#6f97cf"/>
      <path id="Path_1744" data-name="Path 1744" d="M368.323,601.611a4.019,4.019,0,0,0-.974,4.272l2.37,6.58a3.385,3.385,0,0,0,.781,1.407c.84.769,2.161.508,3.254.19,4.127-1.2,8.639-2.954,11.09-6.261a4.067,4.067,0,0,0,.282-4.4l-3.073-5.5a3.123,3.123,0,0,0-1.159-1.363,2.963,2.963,0,0,0-1.836-.108A19.682,19.682,0,0,0,368.323,601.611Z" transform="translate(-234.012 -246.449)" fill="#6f97cf"/>
      <path id="Path_1745" data-name="Path 1745" d="M401.017,587.955a3.5,3.5,0,0,0-.786,3.677,51.743,51.743,0,0,0,2.267,5.276,4.941,4.941,0,0,0,1.676,2.166c1.243.75,2.831.335,4.216-.1,3.236-1.015,6.891-2.415,8.028-5.61a9.428,9.428,0,0,0,.164-4.6,8.045,8.045,0,0,0-2.36-4.65c-2.4-2.242-4.667-1.341-6.728-.382A21.4,21.4,0,0,0,401.017,587.955Z" transform="translate(-243.221 -242.636)" fill="#6f97cf"/>
      <path id="Path_1746" data-name="Path 1746" d="M486.541,599.746a7.161,7.161,0,0,1-2.257-.725" transform="translate(-266.801 -247.2)" fill="#6f97cf"/>
      <path id="Path_1747" data-name="Path 1747" d="M437.051,574.842a36.974,36.974,0,0,0,3.883,8.632,2.813,2.813,0,0,0,1.2,1.24,2.7,2.7,0,0,0,1.479.042,17.733,17.733,0,0,0,7.216-3.012,2.553,2.553,0,0,0,.707-.668,2.408,2.408,0,0,0,.295-1.134,13.753,13.753,0,0,0-2.565-8.4,2.843,2.843,0,0,0-.992-1.029,2.936,2.936,0,0,0-1.857-.085,35.615,35.615,0,0,0-5.131,1.335C439.565,572.349,437.731,573.224,437.051,574.842Z" transform="translate(-253.584 -239.169)" fill="#6f97cf"/>
      <path id="Path_1748" data-name="Path 1748" d="M465.591,561.147l3.5,7.417a5.7,5.7,0,0,0,1.12,1.77,3.835,3.835,0,0,0,2.968.882,11.382,11.382,0,0,0,3.061-.86l4.205-1.62a3.135,3.135,0,0,0,1.359-.812,3.064,3.064,0,0,0,.175-2.741,37.834,37.834,0,0,0-3.427-8.441,1.021,1.021,0,0,0-1.418-.608A65.33,65.33,0,0,0,467.876,559C466.822,559.415,465.165,560.241,465.591,561.147Z" transform="translate(-261.551 -235.178)" fill="#6f97cf"/>
      <path id="Path_1749" data-name="Path 1749" d="M496.934,548.566a62.1,62.1,0,0,0,3.522,7.67,4.023,4.023,0,0,0,1.069,1.4,3.772,3.772,0,0,0,3.049.264,18.225,18.225,0,0,0,5.676-2.366,3.433,3.433,0,0,0,1.357-1.315,3.745,3.745,0,0,0-.244-2.842q-1.089-2.943-2.341-5.82a2.774,2.774,0,0,0-.475-.817,2.557,2.557,0,0,0-2.088-.54,23.916,23.916,0,0,0-7.854,2.47,3.11,3.11,0,0,0-1.293.865A3.148,3.148,0,0,0,496.934,548.566Z" transform="translate(-270.341 -231.857)" fill="#6f97cf"/>
      <path id="Path_1750" data-name="Path 1750" d="M576.63,555.328l-.474-2.459" transform="translate(-292.508 -234.286)" fill="#6f97cf"/>
      <path id="Path_1751" data-name="Path 1751" d="M525.872,537.554q1.342,4.108,3.081,8.072a3.371,3.371,0,0,0,.7,1.136,3.084,3.084,0,0,0,2.421.554,13.5,13.5,0,0,0,6.6-2.426,2.9,2.9,0,0,0,1.218-1.42,3.162,3.162,0,0,0-.238-1.907,59.822,59.822,0,0,0-2.608-6.273,2.674,2.674,0,0,0-.617-.916,2.784,2.784,0,0,0-2.113-.354,21.107,21.107,0,0,0-4.7.838A7.01,7.01,0,0,0,525.872,537.554Z" transform="translate(-278.438 -228.999)" fill="#6f97cf"/>
      <path id="Path_1752" data-name="Path 1752" d="M551.475,523.1a73.084,73.084,0,0,0,3.8,8.288,2.516,2.516,0,0,0,.788,1,2.482,2.482,0,0,0,1.886.075,32.6,32.6,0,0,0,5.525-1.85,3.238,3.238,0,0,0,2.141-4.825,35.377,35.377,0,0,0-2.209-5.314,2.058,2.058,0,0,0-2.822-1.226,32.778,32.778,0,0,0-7.674,2.536A2.962,2.962,0,0,0,551.475,523.1Z" transform="translate(-285.602 -224.845)" fill="#6f97cf"/>
      <path id="Path_1753" data-name="Path 1753" d="M577.829,513.232l2.915,5.633a6.121,6.121,0,0,0,1.029,1.57,4.082,4.082,0,0,0,3.723.89,10.555,10.555,0,0,0,3.568-1.736q1.558-1.047,3.042-2.2a1.6,1.6,0,0,0,.705-2.278,48.3,48.3,0,0,0-2.086-4.824,3.606,3.606,0,0,0-1.892-2.062,3.525,3.525,0,0,0-1.641.02,37.66,37.66,0,0,0-6.978,1.957,5.526,5.526,0,0,0-1.879,1.051A1.681,1.681,0,0,0,577.829,513.232Z" transform="translate(-292.934 -221.77)" fill="#6f97cf"/>
      <path id="Path_1754" data-name="Path 1754" d="M357.326,570.708a4.02,4.02,0,0,0-.974,4.273l2.37,6.58a3.382,3.382,0,0,0,.781,1.407c.84.769,2.161.508,3.254.19,4.127-1.2,8.638-2.954,11.09-6.261a4.067,4.067,0,0,0,.282-4.405l-3.072-5.5a3.128,3.128,0,0,0-1.159-1.362,2.957,2.957,0,0,0-1.836-.108A19.671,19.671,0,0,0,357.326,570.708Z" transform="translate(-230.935 -237.802)" fill="#6f97cf"/>
      <path id="Path_1755" data-name="Path 1755" d="M390.02,557.052a3.5,3.5,0,0,0-.786,3.678,51.733,51.733,0,0,0,2.266,5.276,4.94,4.94,0,0,0,1.677,2.165c1.243.75,2.831.336,4.216-.1,3.236-1.016,6.891-2.415,8.028-5.611a9.424,9.424,0,0,0,.164-4.6,8.045,8.045,0,0,0-2.36-4.651c-2.4-2.241-4.666-1.341-6.727-.381A21.394,21.394,0,0,0,390.02,557.052Z" transform="translate(-240.144 -233.989)" fill="#6f97cf"/>
      <path id="Path_1756" data-name="Path 1756" d="M426.054,543.94a36.953,36.953,0,0,0,3.883,8.632,2.809,2.809,0,0,0,1.2,1.239,2.689,2.689,0,0,0,1.478.042,17.74,17.74,0,0,0,7.215-3.012,2.527,2.527,0,0,0,.707-.668,2.417,2.417,0,0,0,.3-1.134,13.753,13.753,0,0,0-2.565-8.4,2.844,2.844,0,0,0-.993-1.029,2.934,2.934,0,0,0-1.857-.084,35.512,35.512,0,0,0-5.131,1.335C428.568,541.446,426.734,542.322,426.054,543.94Z" transform="translate(-250.507 -230.522)" fill="#6f97cf"/>
      <path id="Path_1757" data-name="Path 1757" d="M454.594,530.244l3.5,7.417a5.689,5.689,0,0,0,1.121,1.77,3.831,3.831,0,0,0,2.968.881,11.355,11.355,0,0,0,3.061-.86l4.2-1.619a3.149,3.149,0,0,0,1.36-.812,3.06,3.06,0,0,0,.174-2.74,37.845,37.845,0,0,0-3.427-8.442,1.022,1.022,0,0,0-1.418-.608,65.331,65.331,0,0,0-9.254,2.866C455.824,528.512,454.168,529.339,454.594,530.244Z" transform="translate(-258.474 -226.531)" fill="#6f97cf"/>
      <path id="Path_1758" data-name="Path 1758" d="M485.937,517.663a62.083,62.083,0,0,0,3.522,7.671,4.012,4.012,0,0,0,1.069,1.4,3.769,3.769,0,0,0,3.049.264,18.221,18.221,0,0,0,5.676-2.366,3.415,3.415,0,0,0,1.356-1.315,3.745,3.745,0,0,0-.244-2.842q-1.088-2.942-2.341-5.82a2.772,2.772,0,0,0-.475-.817,2.552,2.552,0,0,0-2.087-.54,23.925,23.925,0,0,0-7.855,2.469,2.147,2.147,0,0,0-1.671,1.893Z" transform="translate(-267.263 -223.21)" fill="#6f97cf"/>
      <path id="Path_1759" data-name="Path 1759" d="M514.875,506.652q1.342,4.108,3.081,8.072a3.363,3.363,0,0,0,.7,1.137,3.085,3.085,0,0,0,2.421.553,13.5,13.5,0,0,0,6.6-2.425,2.9,2.9,0,0,0,1.219-1.421,3.16,3.16,0,0,0-.238-1.906,60,60,0,0,0-2.608-6.274,2.709,2.709,0,0,0-.617-.916,2.786,2.786,0,0,0-2.113-.354,21.109,21.109,0,0,0-4.7.839A7,7,0,0,0,514.875,506.652Z" transform="translate(-275.361 -220.352)" fill="#6f97cf"/>
      <path id="Path_1760" data-name="Path 1760" d="M539.864,496.108a73.076,73.076,0,0,0,3.8,8.287,2.505,2.505,0,0,0,.788,1,2.477,2.477,0,0,0,1.885.076,32.732,32.732,0,0,0,5.526-1.85,3.239,3.239,0,0,0,2.14-4.826,35.347,35.347,0,0,0-2.209-5.313,2.056,2.056,0,0,0-2.821-1.227,32.737,32.737,0,0,0-7.674,2.536A2.959,2.959,0,0,0,539.864,496.108Z" transform="translate(-282.353 -217.292)" fill="#6f97cf"/>
      <path id="Path_1761" data-name="Path 1761" d="M566.831,485.572l2.915,5.633a6.142,6.142,0,0,0,1.029,1.571,4.085,4.085,0,0,0,3.724.889,10.552,10.552,0,0,0,3.568-1.736q1.558-1.046,3.042-2.194a1.606,1.606,0,0,0,.705-2.278,48.17,48.17,0,0,0-2.087-4.824,3.6,3.6,0,0,0-1.892-2.063,3.532,3.532,0,0,0-1.641.021,37.677,37.677,0,0,0-6.979,1.957,5.544,5.544,0,0,0-1.878,1.052A1.682,1.682,0,0,0,566.831,485.572Z" transform="translate(-289.856 -214.031)" fill="#6f97cf"/>
      <path id="Path_1762" data-name="Path 1762" d="M347.077,541.852a4.02,4.02,0,0,0-.974,4.273l2.369,6.58a3.386,3.386,0,0,0,.781,1.407c.84.769,2.161.508,3.254.19,4.127-1.2,8.639-2.954,11.09-6.261a4.066,4.066,0,0,0,.282-4.405l-3.072-5.5a3.129,3.129,0,0,0-1.159-1.363,2.959,2.959,0,0,0-1.836-.108A19.677,19.677,0,0,0,347.077,541.852Z" transform="translate(-228.068 -229.728)" fill="#6f97cf"/>
      <path id="Path_1763" data-name="Path 1763" d="M379.771,528.2a3.5,3.5,0,0,0-.786,3.677,51.747,51.747,0,0,0,2.266,5.276,4.947,4.947,0,0,0,1.677,2.166c1.243.749,2.831.335,4.216-.1,3.237-1.016,6.891-2.415,8.028-5.611a9.424,9.424,0,0,0,.164-4.6,8.05,8.05,0,0,0-2.361-4.651c-2.4-2.241-4.666-1.34-6.727-.381A21.4,21.4,0,0,0,379.771,528.2Z" transform="translate(-237.276 -225.915)" fill="#6f97cf"/>
      <path id="Path_1764" data-name="Path 1764" d="M415.8,515.084a36.956,36.956,0,0,0,3.883,8.632,2.811,2.811,0,0,0,1.2,1.239,2.7,2.7,0,0,0,1.479.042,17.725,17.725,0,0,0,7.215-3.012,2.525,2.525,0,0,0,.707-.668,2.407,2.407,0,0,0,.3-1.134,13.753,13.753,0,0,0-2.565-8.4,2.839,2.839,0,0,0-.992-1.028,2.931,2.931,0,0,0-1.857-.085A35.625,35.625,0,0,0,420.036,512C418.319,512.591,416.485,513.466,415.8,515.084Z" transform="translate(-247.639 -222.448)" fill="#6f97cf"/>
      <path id="Path_1765" data-name="Path 1765" d="M444.345,501.389l3.5,7.417a5.7,5.7,0,0,0,1.121,1.77,3.834,3.834,0,0,0,2.968.881,11.356,11.356,0,0,0,3.061-.86l4.2-1.619a3.148,3.148,0,0,0,1.36-.812,3.062,3.062,0,0,0,.175-2.74,37.89,37.89,0,0,0-3.427-8.442,1.345,1.345,0,0,0-.525-.606,1.364,1.364,0,0,0-.893,0,65.436,65.436,0,0,0-9.254,2.866C445.575,499.656,443.919,500.483,444.345,501.389Z" transform="translate(-255.606 -218.457)" fill="#6f97cf"/>
      <path id="Path_1766" data-name="Path 1766" d="M475.688,488.808a62.145,62.145,0,0,0,3.522,7.67,4.014,4.014,0,0,0,1.069,1.4,3.772,3.772,0,0,0,3.049.265A18.23,18.23,0,0,0,489,495.78a3.422,3.422,0,0,0,1.357-1.315,3.748,3.748,0,0,0-.245-2.842q-1.088-2.942-2.341-5.82a2.792,2.792,0,0,0-.475-.817,2.555,2.555,0,0,0-2.087-.54,23.933,23.933,0,0,0-7.854,2.469,2.146,2.146,0,0,0-1.672,1.893Z" transform="translate(-264.396 -215.136)" fill="#6f97cf"/>
      <path id="Path_1767" data-name="Path 1767" d="M504.626,477.8q1.342,4.108,3.081,8.072a3.37,3.37,0,0,0,.7,1.137,3.085,3.085,0,0,0,2.421.554,13.5,13.5,0,0,0,6.6-2.426,2.9,2.9,0,0,0,1.219-1.421,3.162,3.162,0,0,0-.238-1.906,59.919,59.919,0,0,0-2.608-6.273,2.694,2.694,0,0,0-.616-.916,2.786,2.786,0,0,0-2.113-.355,21.108,21.108,0,0,0-4.7.839A7,7,0,0,0,504.626,477.8Z" transform="translate(-272.493 -212.278)" fill="#6f97cf"/>
      <path id="Path_1768" data-name="Path 1768" d="M529.615,467.252a73.137,73.137,0,0,0,3.8,8.288,2.514,2.514,0,0,0,.788,1,2.482,2.482,0,0,0,1.886.075,32.666,32.666,0,0,0,5.525-1.85,3.238,3.238,0,0,0,2.14-4.825,35.272,35.272,0,0,0-2.21-5.314,2.055,2.055,0,0,0-2.821-1.226,32.776,32.776,0,0,0-7.674,2.536A2.959,2.959,0,0,0,529.615,467.252Z" transform="translate(-279.485 -209.218)" fill="#6f97cf"/>
      <path id="Path_1769" data-name="Path 1769" d="M556.582,456.716l2.915,5.633a6.141,6.141,0,0,0,1.029,1.57,4.083,4.083,0,0,0,3.724.89,10.541,10.541,0,0,0,3.568-1.737q1.558-1.046,3.042-2.194a1.606,1.606,0,0,0,.705-2.278,48.174,48.174,0,0,0-2.087-4.824,3.6,3.6,0,0,0-1.892-2.063,3.532,3.532,0,0,0-1.64.021,37.728,37.728,0,0,0-6.979,1.957,5.542,5.542,0,0,0-1.878,1.052A1.682,1.682,0,0,0,556.582,456.716Z" transform="translate(-286.988 -205.956)" fill="#6f97cf"/>
      <path id="Path_1770" data-name="Path 1770" d="M365.291,357.959" transform="translate(-233.505 -179.747)" fill="none" stroke="#6f97cf" stroke-miterlimit="10" stroke-width="5"/>
      <path id="Path_1771" data-name="Path 1771" d="M295.594,274.059" transform="translate(-214.002 -156.271)" fill="#6f97cf"/>
    </g>
  </g>
</svg>
